<!DOCTYPE svg PUBLIC "-//W3C//DTD SVG 1.1//EN" "http://www.w3.org/Graphics/SVG/1.1/DTD/svg11.dtd">
<!-- Generator: Adobe Illustrator 19.0.0, SVG Export Plug-In . SVG Version: 6.00 Build 0)  -->
<svg version="1.1" id="Capa_1" xmlns="http://www.w3.org/2000/svg" xmlns:xlink="http://www.w3.org/1999/xlink" x="0px" y="0px"
	 viewBox="0 0 512 512" style="enable-background:new 0 0 512 512;" xml:space="preserve">
<path style="fill:#6D3326;" d="M512,286v180c0,24.899-21.099,46-46,46H286c-8.401,0-15-6.601-15-15l30-241c0-8.401,6.599-15,15-15
	h150C490.901,241,512,261.099,512,286z"/>
<path style="fill:#55271A;" d="M512,286v180c0,24.899-21.099,46-46,46h-60V241h60C490.901,241,512,261.099,512,286z"/>
<path style="fill:#ECECF1;" d="M406,301c-24.901,0-45,20.099-45,45c0,24.899,20.099,45,45,45s45-20.101,45-45
	C451,321.099,430.901,301,406,301z"/>
<path style="fill:#E2E2E7;" d="M451,346c0,24.899-20.099,45-45,45v-90C430.901,301,451,321.099,451,346z"/>
<path style="fill:#A44F3E;" d="M286,0H45C20.099,0,0,20.099,0,45v421c0,24.899,20.099,46,45,46h241c24.901,0,45-21.101,45-46V45
	C331,20.099,310.901,0,286,0z"/>
<path style="fill:#883F2E;" d="M331,45v421c0,24.899-20.099,46-45,46H166V0h120C310.901,0,331,20.099,331,45z"/>
<path style="fill:#ECECF1;" d="M166,241c-57.9,0-105,47.1-105,105s47.1,105,105,105s105-47.1,105-105S223.9,241,166,241z"/>
<path style="fill:#E2E2E7;" d="M271,346c0,57.9-47.1,105-105,105V241C223.9,241,271,288.1,271,346z"/>
<path style="fill:#ECECF1;" d="M166,61c-41.4,0-75,33.6-75,75s33.6,75,75,75s75-33.6,75-75S207.4,61,166,61z"/>
<path style="fill:#E2E2E7;" d="M166,211V61c41.4,0,75,33.6,75,75S207.4,211,166,211z"/>
<g>
	<path style="fill:#6D3326;" d="M166,271c-41.4,0-75,33.6-75,75s33.6,75,75,75s75-33.6,75-75S207.4,271,166,271z"/>
	<path style="fill:#6D3326;" d="M166,91c-24.901,0-45,20.099-45,45c0,24.899,20.099,45,45,45s45-20.101,45-45
		C211,111.099,190.901,91,166,91z"/>
	<circle style="fill:#6D3326;" cx="76" cy="226" r="15"/>
</g>
<path style="fill:#FDBF00;" d="M181,136c0,8.399-6.599,15-15,15s-15-6.601-15-15c0-8.401,6.599-15,15-15S181,127.599,181,136z"/>
<circle style="fill:#55271A;" cx="256" cy="226" r="15"/>
<circle style="fill:#FDBF00;" cx="376" cy="436" r="15"/>
<circle style="fill:#FF9F00;" cx="436" cy="436" r="15"/>
<path style="fill:#00DDC1;" d="M406,121c-24.901,0-45,20.099-45,45c0,24.899,20.099,45,45,45s45-20.101,45-45
	C451,141.099,430.901,121,406,121z"/>
<path style="fill:#00AB94;" d="M436,181c-8.291,0-15-6.709-15-15V15c0-5.2,2.695-10.02,7.119-12.759
	c4.395-2.739,9.902-2.974,14.59-0.659l27.876,13.931C495.517,27.979,511,54.042,511,81.918c0,19.541-7.603,37.896-21.416,51.709
	c-5.859,5.859-15.352,5.859-21.211,0s-5.859-15.352,0-21.211C476.518,104.271,481,93.446,481,81.918
	c0-16.436-9.126-32.216-23.833-39.569L451,39.258V166C451,174.291,444.291,181,436,181z"/>
<g>
	<path style="fill:#55271A;" d="M166,181V91c24.901,0,45,20.099,45,45C211,160.899,190.901,181,166,181z"/>
	<path style="fill:#55271A;" d="M241,346c0,41.4-33.6,75-75,75V271C207.4,271,241,304.6,241,346z"/>
</g>
<path style="fill:#FF9F00;" d="M166,151v-30c8.401,0,15,6.599,15,15C181,144.399,174.401,151,166,151z"/>
<path style="fill:#FDBF00;" d="M166,301c-24.901,0-45,20.099-45,45c0,24.899,20.099,45,45,45s45-20.101,45-45
	C211,321.099,190.901,301,166,301z"/>
<path style="fill:#FF9F00;" d="M211,346c0,24.899-20.099,45-45,45v-90C190.901,301,211,321.099,211,346z"/>
<path style="fill:#6D3326;" d="M166,331c-8.401,0-15,6.599-15,15c0,8.399,6.599,15,15,15s15-6.601,15-15
	C181,337.599,174.401,331,166,331z"/>
<path style="fill:#55271A;" d="M181,346c0,8.399-6.599,15-15,15v-30C174.401,331,181,337.599,181,346z"/>
<path style="fill:#00CCB2;" d="M451,166c0,24.899-20.099,45-45,45v-90C430.901,121,451,141.099,451,166z"/>
<path style="fill:#6D3326;" d="M406,331c-8.401,0-15,6.599-15,15c0,8.399,6.599,15,15,15s15-6.601,15-15
	C421,337.599,414.401,331,406,331z"/>
<path style="fill:#55271A;" d="M421,346c0,8.399-6.599,15-15,15v-30C414.401,331,421,337.599,421,346z"/>
<g>
</g>
<g>
</g>
<g>
</g>
<g>
</g>
<g>
</g>
<g>
</g>
<g>
</g>
<g>
</g>
<g>
</g>
<g>
</g>
<g>
</g>
<g>
</g>
<g>
</g>
<g>
</g>
<g>
</g>
</svg>
